# xmcd
#
# Track frame offsets:
# 150
# 12100
# 23917
# 33347
# 47660
# 58485
# 71205
# 84582
# 102240
# 118230
# 128675
# 141297
# 161047
# 181462
# 209580
# 225897
# 240670
# 257600
# 274620
#
# Disc length: 3850 seconds
#
#
# Revision: 0
# Processed by: cddbd v1.4PL0 Copyright (c) Steve Scherf et al.
# Submitted via: FreeRIP 2.51 
#
DISCID=0f0f0813
DTITLE=The Cats - The rest of
DYEAR=1994
DGENRE=Pop
TTITLE0=What a crazy life
TTITLE1=Hopeless try
TTITLE2=Vive lamour
TTITLE3=Love of the common people
TTITLE4=I like the way
TTITLE5=Why baby why
TTITLE6=Freedom bird
TTITLE7=I walk through the fields
TTITLE8=Don't waste your time
TTITLE9=It's over now
TTITLE10=Five little tears
TTITLE11=Trying to explain
TTITLE12=I've been in love before
TTITLE13=Missisippi
TTITLE14=Hard to be friends
TTITLE15=We should be together
TTITLE16=Cindy
TTITLE17=One more time
TTITLE18=Sois ma femme (Be my day)
EXTD=
EXTT0=
EXTT1=
EXTT2=
EXTT3=
EXTT4=
EXTT5=
EXTT6=
EXTT7=
EXTT8=
EXTT9=
EXTT10=
EXTT11=
EXTT12=
EXTT13=
EXTT14=
EXTT15=
EXTT16=
EXTT17=
EXTT18=
PLAYORDER=
